<svg width="48" height="48" viewBox="0 0 48 48" fill="none" xmlns="http://www.w3.org/2000/svg">
<circle cx="24" cy="24" r="23" stroke="#141D0C" stroke-width="2"/>
<path d="M30.7915 23.0051H19.6215L24.5015 18.1251C24.8915 17.7351 24.8915 17.0951 24.5015 16.7051C24.3147 16.5178 24.061 16.4126 23.7965 16.4126C23.532 16.4126 23.2783 16.5178 23.0915 16.7051L16.5015 23.2951C16.1115 23.6851 16.1115 24.3151 16.5015 24.7051L23.0915 31.2951C23.4815 31.6851 24.1115 31.6851 24.5015 31.2951C24.8915 30.9051 24.8915 30.2751 24.5015 29.8851L19.6215 25.0051H30.7915C31.3415 25.0051 31.7915 24.5551 31.7915 24.0051C31.7915 23.4551 31.3415 23.0051 30.7915 23.0051Z" fill="#141D0C"/>
</svg>
