<svg width="32" height="32" viewBox="0 0 32 32" fill="none" xmlns="http://www.w3.org/2000/svg">
<path d="M16.0022 2.67334C23.3595 2.67334 29.3328 8.64667 29.3328 16.0027C29.3328 23.36 23.3595 29.3333 16.0022 29.3333C8.64618 29.3333 2.67285 23.36 2.67285 16.0027C2.67285 8.64667 8.64618 2.67334 16.0022 2.67334ZM16.0022 4.67334C9.74885 4.67334 4.67285 9.74934 4.67285 16.0027C4.67285 22.256 9.74885 27.3333 16.0022 27.3333C22.2555 27.3333 27.3328 22.256 27.3328 16.0027C27.3328 9.74934 22.2555 4.67334 16.0022 4.67334ZM21.6728 15.0067H10.3395C9.78752 15.0067 9.33952 15.4547 9.33952 16.0067C9.33952 16.5587 9.78752 17.0067 10.3395 17.0067H21.6728C22.2248 17.0067 22.6728 16.5587 22.6728 16.0067C22.6728 15.4547 22.2248 15.0067 21.6728 15.0067Z" fill="#141D0C"/>
</svg>
