<svg width="32" height="32" viewBox="0 0 32 32" fill="none" xmlns="http://www.w3.org/2000/svg">
<path d="M16.0022 2.66675C23.3595 2.66675 29.3328 8.64008 29.3328 15.9974C29.3328 23.3534 23.3595 29.3267 16.0022 29.3267C8.64618 29.3267 2.67285 23.3534 2.67285 15.9974C2.67285 8.64008 8.64618 2.66675 16.0022 2.66675ZM16.0022 4.66675C9.74885 4.66675 4.67285 9.74408 4.67285 15.9974C4.67285 22.2507 9.74885 27.3267 16.0022 27.3267C22.2555 27.3267 27.3328 22.2507 27.3328 15.9974C27.3328 9.74408 22.2555 4.66675 16.0022 4.66675ZM15.0062 15.0001H10.3395C9.78752 15.0001 9.33952 15.4481 9.33952 16.0001C9.33952 16.5521 9.78752 17.0001 10.3395 17.0001H15.0062V21.6667C15.0062 22.2187 15.4542 22.6667 16.0062 22.6667C16.5582 22.6667 17.0062 22.2187 17.0062 21.6667V17.0001H21.6728C22.2248 17.0001 22.6728 16.5521 22.6728 16.0001C22.6728 15.4481 22.2248 15.0001 21.6728 15.0001H17.0062V10.3334C17.0062 9.78141 16.5582 9.33342 16.0062 9.33342C15.4542 9.33342 15.0062 9.78141 15.0062 10.3334V15.0001Z" fill="#141D0C"/>
</svg>
