<svg width="48" height="48" viewBox="0 0 48 48" fill="none" xmlns="http://www.w3.org/2000/svg">
<g id="iconmonstr-x-mark-lined 1">
<path id="Vector" fill-rule="evenodd" clip-rule="evenodd" d="M24 21.8601L35.438 10.4201C35.73 10.1281 36.116 9.98206 36.5 9.98206C37.308 9.98206 38 10.6301 38 11.4801C38 11.8661 37.854 12.2501 37.562 12.5441L26.122 23.9821L37.56 35.4201C37.854 35.7141 38 36.0981 38 36.4821C38 37.3361 37.302 37.9821 36.5 37.9821C36.116 37.9821 35.73 37.8361 35.438 37.5441L24 26.1061L12.562 37.5441C12.27 37.8361 11.884 37.9821 11.5 37.9821C10.698 37.9821 10 37.3361 10 36.4821C10 36.0981 10.146 35.7141 10.44 35.4201L21.878 23.9821L10.438 12.5441C10.146 12.2501 10 11.8661 10 11.4801C10 10.6301 10.692 9.98206 11.5 9.98206C11.884 9.98206 12.27 10.1281 12.562 10.4201L24 21.8601Z" fill="white"/>
</g>
</svg>
