<svg width="92" height="48" viewBox="0 0 92 48" fill="none" xmlns="http://www.w3.org/2000/svg">
<circle cx="24" cy="24" r="23" stroke="#465949" stroke-width="2"/>
<path d="M30.7915 23.0046H19.6215L24.5015 18.1246C24.8915 17.7346 24.8915 17.0946 24.5015 16.7046C24.3147 16.5173 24.061 16.4121 23.7965 16.4121C23.532 16.4121 23.2783 16.5173 23.0915 16.7046L16.5015 23.2946C16.1115 23.6846 16.1115 24.3146 16.5015 24.7046L23.0915 31.2946C23.4815 31.6846 24.1115 31.6846 24.5015 31.2946C24.8915 30.9046 24.8915 30.2746 24.5015 29.8846L19.6215 25.0046H30.7915C31.3415 25.0046 31.7915 24.5546 31.7915 24.0046C31.7915 23.4546 31.3415 23.0046 30.7915 23.0046Z" fill="#465949"/>
<path d="M56.6855 32V16.5312H60.8779C62.0029 16.5312 62.8203 16.8066 63.3301 17.3574C63.8457 17.9023 64.1035 18.8047 64.1035 20.0645V20.7412C64.1035 21.4678 63.9717 22.0566 63.708 22.5078C63.4502 22.959 63.0547 23.2549 62.5215 23.3955C63.2188 23.5713 63.6846 23.9844 63.9189 24.6348C64.1592 25.2793 64.2793 26.0674 64.2793 26.999C64.2793 28.001 64.1855 28.877 63.998 29.627C63.8105 30.377 63.4707 30.96 62.9785 31.376C62.4863 31.792 61.7861 32 60.8779 32H56.6855ZM59.709 22.3584H60.3418C60.6289 22.3584 60.8135 22.2471 60.8955 22.0244C60.9775 21.8018 61.0186 21.5352 61.0186 21.2246V19.6689C61.0186 19.1709 60.7988 18.9219 60.3594 18.9219H59.709V22.3584ZM60.0166 29.2754C60.8193 29.2754 61.2207 28.8945 61.2207 28.1328V26.1992C61.2207 25.7598 61.1533 25.4141 61.0186 25.1621C60.8896 24.9043 60.6436 24.7754 60.2803 24.7754H59.709V29.2578C59.8379 29.2695 59.9404 29.2754 60.0166 29.2754ZM67.6455 32.1406C66.9131 32.1406 66.3535 31.9707 65.9668 31.6309C65.5859 31.291 65.3252 30.8252 65.1846 30.2334C65.0439 29.6416 64.9736 28.9707 64.9736 28.2207C64.9736 27.418 65.0527 26.7617 65.2109 26.252C65.3691 25.7363 65.6387 25.3145 66.0195 24.9863C66.4062 24.6582 66.9365 24.3799 67.6104 24.1514L69.5615 23.4834V22.1299C69.5615 21.4209 69.3301 21.0664 68.8672 21.0664C68.4453 21.0664 68.2344 21.3535 68.2344 21.9277V22.7188H65.1758C65.1699 22.6719 65.167 22.6133 65.167 22.543C65.167 22.4668 65.167 22.3818 65.167 22.2881C65.167 20.9756 65.4746 20.0469 66.0898 19.502C66.7109 18.9512 67.6924 18.6758 69.0342 18.6758C69.7373 18.6758 70.3672 18.8018 70.9238 19.0537C71.4805 19.2998 71.9199 19.666 72.2422 20.1523C72.5703 20.6387 72.7344 21.2393 72.7344 21.9541V32H69.6055V30.4355C69.4531 30.9863 69.2012 31.4082 68.8496 31.7012C68.498 31.9941 68.0967 32.1406 67.6455 32.1406ZM68.8848 29.6973C69.1426 29.6973 69.3184 29.5889 69.4121 29.3721C69.5059 29.1553 69.5527 28.9209 69.5527 28.6689V24.9951C69.1191 25.1709 68.7822 25.3936 68.542 25.6631C68.3018 25.9268 68.1816 26.3164 68.1816 26.832V28.5283C68.1816 29.3076 68.416 29.6973 68.8848 29.6973ZM77.9111 32.1406C76.4346 32.1406 75.3857 31.7627 74.7646 31.0068C74.1494 30.251 73.8418 29.1406 73.8418 27.6758V23.6152C73.8418 22.5137 73.959 21.5967 74.1934 20.8643C74.4277 20.1318 74.8379 19.584 75.4238 19.2207C76.0098 18.8574 76.8242 18.6758 77.8672 18.6758C78.5938 18.6758 79.2441 18.8047 79.8184 19.0625C80.3984 19.3203 80.8555 19.6982 81.1895 20.1963C81.5234 20.6943 81.6904 21.3037 81.6904 22.0244V24.0371H78.4824V22.1914C78.4824 21.8867 78.4385 21.6318 78.3506 21.4268C78.2627 21.2158 78.0723 21.1104 77.7793 21.1104C77.2637 21.1104 77.0059 21.4766 77.0059 22.209V28.5986C77.0059 28.8682 77.0645 29.1172 77.1816 29.3457C77.2988 29.5684 77.4922 29.6797 77.7617 29.6797C78.0371 29.6797 78.2275 29.5713 78.333 29.3545C78.4443 29.1318 78.5 28.874 78.5 28.5811V26.3662H81.6904V28.6689C81.6904 29.3955 81.5264 30.0195 81.1982 30.541C80.876 31.0566 80.4307 31.4521 79.8623 31.7275C79.2939 32.0029 78.6436 32.1406 77.9111 32.1406ZM82.7891 32V16.5312H85.9004V23.3604L87.4121 18.8164H90.6729L88.6953 24.5469L91.209 32H87.8604L85.9004 25.7861V32H82.7891Z" fill="#465949"/>
</svg>
