<svg width="32" height="32" viewBox="0 0 32 32" fill="none" xmlns="http://www.w3.org/2000/svg">
<g id="iconmonstr-shopping-cart-2 2">
<path id="Vector" d="M32 4L31.0093 6.66667H28.4373L23.8053 22.6667H6.15333L0 8H22.416L21.664 10.6667H4.01067L7.92667 20H21.8307L26.4067 4H32ZM11.3333 24C10.2293 24 9.33333 24.896 9.33333 26C9.33333 27.1053 10.2293 28 11.3333 28C12.4373 28 13.3333 27.1053 13.3333 26C13.3333 24.896 12.4373 24 11.3333 24ZM18 24C16.896 24 16 24.8947 16 26C16 27.1053 16.896 28 18 28C19.104 28 20 27.1053 20 26C20 24.896 19.104 24 18 24Z" fill="#E6E1C5"/>
</g>
</svg>
