<svg width="24" height="25" viewBox="0 0 24 25" fill="none" xmlns="http://www.w3.org/2000/svg">
<path fill-rule="evenodd" clip-rule="evenodd" d="M12 2.5C6.48 2.5 2 6.98 2 12.5C2 18.02 6.48 22.5 12 22.5C17.52 22.5 22 18.02 22 12.5C22 6.98 17.52 2.5 12 2.5ZM12 20.5C7.58 20.5 4 16.92 4 12.5C4 8.08 7.58 4.5 12 4.5C16.42 4.5 20 8.08 20 12.5C20 16.92 16.42 20.5 12 20.5ZM7 12.5C7 9.73858 9.23858 7.5 12 7.5C14.7614 7.5 17 9.73858 17 12.5C17 15.2614 14.7614 17.5 12 17.5C9.23858 17.5 7 15.2614 7 12.5Z" fill="#7A0037"/>
</svg>
