<svg width="24" height="24" viewBox="0 0 24 24" fill="none" xmlns="http://www.w3.org/2000/svg">
<path d="M15.344 17.7783C15.344 17.3643 15.008 17.0283 14.594 17.0283H9.434C9.02 17.0283 8.684 17.3643 8.684 17.7783C8.684 18.1923 9.02 18.5283 9.434 18.5283H14.594C15.008 18.5283 15.344 18.1923 15.344 17.7783ZM17.55 13.7783C17.55 13.3643 17.214 13.0283 16.8 13.0283H7.204C6.79 13.0283 6.454 13.3643 6.454 13.7783C6.454 14.1923 6.79 14.5283 7.204 14.5283H16.8C17.214 14.5283 17.55 14.1923 17.55 13.7783ZM20 9.77832C20 9.36432 19.664 9.02832 19.25 9.02832H4.75C4.336 9.02832 4 9.36432 4 9.77832C4 10.1923 4.336 10.5283 4.75 10.5283H19.25C19.664 10.5283 20 10.1923 20 9.77832ZM22 5.77832C22 5.36432 21.664 5.02832 21.25 5.02832H2.75C2.336 5.02832 2 5.36432 2 5.77832C2 6.19232 2.336 6.52832 2.75 6.52832H21.25C21.664 6.52832 22 6.19232 22 5.77832Z" fill="#465949"/>
</svg>
