<svg width="40" height="40" viewBox="0 0 40 40" fill="none" xmlns="http://www.w3.org/2000/svg">
<g id="iconmonstr-menu-lined 2">
<path id="Vector" d="M36.6663 27.9167C36.6663 27.2267 36.1063 26.6667 35.4163 26.6667H4.58301C3.89301 26.6667 3.33301 27.2267 3.33301 27.9167C3.33301 28.6067 3.89301 29.1667 4.58301 29.1667H35.4163C36.1063 29.1667 36.6663 28.6067 36.6663 27.9167ZM36.6663 19.5833C36.6663 18.8933 36.1063 18.3333 35.4163 18.3333H4.58301C3.89301 18.3333 3.33301 18.8933 3.33301 19.5833C3.33301 20.2733 3.89301 20.8333 4.58301 20.8333H35.4163C36.1063 20.8333 36.6663 20.2733 36.6663 19.5833ZM36.6663 11.25C36.6663 10.56 36.1063 10 35.4163 10H4.58301C3.89301 10 3.33301 10.56 3.33301 11.25C3.33301 11.94 3.89301 12.5 4.58301 12.5H35.4163C36.1063 12.5 36.6663 11.94 36.6663 11.25Z" fill="#E6E1C5"/>
</g>
</svg>
