<svg width="151" height="61" viewBox="0 0 151 61" fill="none" xmlns="http://www.w3.org/2000/svg">
<path d="M19.129 41.282C18.6903 41.282 18.2987 41.0783 17.954 40.671C17.6407 40.2637 17.437 39.8563 17.343 39.449L17.202 38.838C17.108 38.4933 16.873 38.321 16.497 38.321C16.1523 38.321 15.839 38.4307 15.557 38.65C12.6117 40.9687 9.87 42.128 7.332 42.128C4.07333 42.128 2.444 39.9503 2.444 35.595C2.444 34.0597 2.83567 32.1483 3.619 29.861C4.43367 27.5737 5.593 25.1923 7.097 22.717C8.601 20.2103 10.293 17.876 12.173 15.714C14.0843 13.5207 16.2777 11.719 18.753 10.309C21.2597 8.899 23.7507 8.194 26.226 8.194C27.5733 8.194 28.67 8.429 29.516 8.899C29.6413 8.96166 29.7823 8.993 29.939 8.993C30.0957 8.993 30.2523 8.946 30.409 8.852C31.1923 8.31933 32.195 8.053 33.417 8.053C34.639 8.053 35.25 8.35066 35.25 8.946C35.25 9.698 34.4667 11.1863 32.9 13.411C30.456 16.889 28.4507 18.628 26.884 18.628C26.4767 18.628 26.1947 18.5967 26.038 18.534C25.9127 18.4713 25.85 18.346 25.85 18.158C25.85 17.97 25.944 17.6567 26.132 17.218C26.7587 15.902 27.072 14.821 27.072 13.975C27.072 13.0977 26.8997 12.4397 26.555 12.001C26.2417 11.531 25.568 11.296 24.534 11.296C22.654 11.296 20.4137 12.7217 17.813 15.573C15.2437 18.393 13.0347 21.6673 11.186 25.396C9.33733 29.0933 8.413 32.1483 8.413 34.561C8.413 36.5977 9.259 37.616 10.951 37.616C12.267 37.616 13.7553 36.9423 15.416 35.595C17.108 34.2477 18.4867 32.8063 19.552 31.271C20.6487 29.7043 21.197 28.592 21.197 27.934C21.197 27.2447 20.868 26.7747 20.21 26.524C19.552 26.242 18.283 26.101 16.403 26.101C16.027 26.101 15.839 25.96 15.839 25.678C15.839 25.1453 16.1367 24.597 16.732 24.033C17.3587 23.469 17.954 23.1557 18.518 23.093C20.774 22.9363 23.1397 22.858 25.615 22.858C28.1217 22.858 29.375 23.0773 29.375 23.516C29.375 23.892 29.1557 24.4717 28.717 25.255C28.3097 26.0383 27.965 26.6807 27.683 27.182C27.4323 27.652 27.0407 28.3257 26.508 29.203C26.0067 30.049 25.5993 30.7227 25.286 31.224C24.9727 31.7253 24.487 32.493 23.829 33.527C23.2023 34.5297 22.701 35.3443 22.325 35.971C21.949 36.5977 21.479 37.428 20.915 38.462C20.3823 39.496 19.9907 40.2323 19.74 40.671C19.4893 41.0783 19.2857 41.282 19.129 41.282ZM42.0966 34.42C42.0966 34.42 37.3339 34.4357 27.8086 34.467C27.4012 34.467 27.1976 34.3103 27.1976 33.997C27.1976 33.5897 27.5266 33.01 28.1846 32.258C28.8426 31.4747 29.6416 31.083 30.5816 31.083H44.8226C45.2612 31.083 45.4806 31.224 45.4806 31.506C45.4806 31.9447 45.1516 32.54 44.4936 33.292C43.8669 34.044 43.0679 34.42 42.0966 34.42ZM68.8914 37.757C67.5127 39.0103 65.711 40.0443 63.4864 40.859C61.2617 41.6423 59.0997 42.034 57.0004 42.034C54.901 42.034 53.397 41.9243 52.4884 41.705C51.611 41.517 51.094 41.423 50.9374 41.423C50.624 41.423 50.3107 41.517 49.9974 41.705C48.9947 42.6137 47.7884 43.068 46.3784 43.068C44.9684 43.068 44.2634 42.8173 44.2634 42.316C44.2634 41.9713 45.3444 39.919 47.5064 36.159C49.6997 32.399 52.1124 28.216 54.7444 23.61C57.4077 19.004 59.1154 15.8393 59.8674 14.116C60.6507 12.3927 61.0424 10.9043 61.0424 9.651V9.275C61.0424 8.429 63.4707 8.006 68.3274 8.006C72.7767 8.006 75.628 8.241 76.8814 8.711C78.5107 9.33766 79.529 10.168 79.9364 11.202C80.187 11.8287 80.3124 12.5807 80.3124 13.458C80.3124 14.868 79.7954 16.1997 78.7614 17.453C76.85 19.709 74.3747 21.1973 71.3354 21.918C70.176 22.2 69.4867 22.435 69.2674 22.623C69.048 22.811 68.9384 23.0147 68.9384 23.234C68.9384 23.422 69.1577 23.6727 69.5964 23.986C70.0664 24.268 70.5677 24.5813 71.1004 24.926C71.6644 25.2707 72.1657 25.8347 72.6044 26.618C73.0744 27.4013 73.3094 28.404 73.3094 29.626C73.3094 30.8167 72.9177 32.1483 72.1344 33.621C71.3824 35.0937 70.3014 36.4723 68.8914 37.757ZM64.8024 35.172C65.711 34.0753 66.416 32.963 66.9174 31.835C67.45 30.707 67.7164 29.767 67.7164 29.015C67.7164 28.2317 67.591 27.5737 67.3404 27.041C67.121 26.477 66.8547 26.054 66.5414 25.772C66.228 25.49 65.852 25.2707 65.4134 25.114C64.7554 24.8633 64.0974 24.738 63.4394 24.738H62.9694C62.562 24.738 62.3584 24.597 62.3584 24.315C62.3584 23.657 62.5934 22.9677 63.0634 22.247C63.5647 21.495 64.1287 21.119 64.7554 21.119C67.2934 21.119 69.565 20.273 71.5704 18.581C73.5757 16.889 74.5784 15.0873 74.5784 13.176C74.5784 11.5153 73.4817 10.685 71.2884 10.685C69.471 10.685 68.202 11.1237 67.4814 12.001C65.5074 14.445 62.656 19.004 58.9274 25.678C55.1987 32.3207 53.3344 36.2217 53.3344 37.381C53.3344 37.851 53.585 38.2583 54.0864 38.603C54.619 38.9477 55.559 39.12 56.9064 39.12C58.285 39.12 59.7107 38.744 61.1834 37.992C62.6874 37.2087 63.8937 36.2687 64.8024 35.172ZM72.1799 42.786C72.1799 41.5327 72.6969 39.59 73.7309 36.958C74.7649 34.2947 75.9242 31.7097 77.2089 29.203C78.4935 26.6963 80.2325 23.61 82.4259 19.944C85.6845 14.5233 89.0372 9.14966 92.4839 3.823C93.0166 2.977 93.8469 2.28767 94.9749 1.755C96.1029 1.22233 97.1212 0.955997 98.0299 0.955997C98.9386 0.955997 99.4086 1.20666 99.4399 1.708C99.4399 1.86467 99.3459 2.037 99.1579 2.225C98.0925 3.19633 96.3065 5.45233 93.7999 8.993C91.2932 12.5023 88.6299 16.5287 85.8099 21.072C83.0212 25.6153 80.5615 30.4093 78.4309 35.454C76.3315 40.4987 75.2819 44.619 75.2819 47.815C75.2819 48.285 75.1409 48.52 74.8589 48.52C74.3262 48.52 73.8719 48.3163 73.4959 47.909C73.1199 47.533 72.8535 47.0473 72.6969 46.452C72.3522 45.2613 72.1799 44.0393 72.1799 42.786ZM82.467 43.397C82.0283 43.397 81.5427 43.115 81.01 42.551C80.4773 42.0183 80.211 41.3603 80.211 40.577C80.211 40.1383 81.2293 37.9293 83.266 33.95C85.334 29.9393 86.3993 27.229 86.462 25.819C86.462 25.3803 86.744 24.973 87.308 24.597C88.3107 24.0017 89.799 23.704 91.773 23.704C92.149 23.704 92.5407 23.7823 92.948 23.939C93.3867 24.0643 93.606 24.2523 93.606 24.503C93.606 24.6283 93.559 24.738 93.465 24.832C92.2743 26.336 90.5353 29.0463 88.248 32.963C85.9607 36.8797 84.2373 40.06 83.078 42.504C82.9213 43.0993 82.7177 43.397 82.467 43.397ZM92.76 21.072C91.3813 21.072 90.6607 20.5237 90.598 19.427V19.38C90.598 18.44 91.0523 17.6723 91.961 17.077C92.901 16.4817 93.8253 16.184 94.734 16.184C96.1127 16.184 96.8333 16.7323 96.896 17.829C96.896 18.769 96.4417 19.5523 95.533 20.179C94.6243 20.7743 93.7 21.072 92.76 21.072ZM86.4635 43.209C86.4635 42.9583 86.6358 42.8017 86.9805 42.739C89.1738 42.739 91.5081 42.034 93.9835 40.624C96.4901 39.214 97.7435 37.7413 97.7435 36.206C97.7435 35.078 96.9915 33.997 95.4875 32.963C93.9835 31.8977 93.2315 30.7853 93.2315 29.626C93.2315 27.9027 94.3281 26.4143 96.5215 25.161C98.7148 23.8763 101.206 23.234 103.994 23.234C104.496 23.234 104.825 23.2497 104.981 23.281C105.138 23.281 105.279 23.187 105.404 22.999C105.561 22.7797 105.733 22.5447 105.921 22.294C106.109 22.0433 106.454 21.824 106.955 21.636C107.457 21.4167 108.052 21.307 108.741 21.307C110.339 21.307 111.138 21.542 111.138 22.012C111.138 22.106 111.123 22.1843 111.091 22.247C110.59 22.6857 109.697 23.7667 108.412 25.49C107.128 27.2133 106.188 28.827 105.592 30.331C105.467 30.613 105.185 30.754 104.746 30.754C104.339 30.754 103.932 30.519 103.524 30.049C103.117 29.5477 102.913 29.0777 102.913 28.639C102.913 28.169 102.992 27.6833 103.148 27.182C103.305 26.6493 103.383 26.336 103.383 26.242C103.383 25.8347 103.133 25.631 102.631 25.631C101.66 25.631 100.642 25.9287 99.5765 26.524C98.5425 27.088 98.0255 27.9183 98.0255 29.015C98.0255 30.0803 98.8088 31.1613 100.375 32.258C100.971 32.6967 101.503 33.2607 101.973 33.95C102.475 34.6393 102.725 35.36 102.725 36.112C102.725 38.2427 101.331 40.1697 98.5425 41.893C95.7538 43.6477 92.7301 44.525 89.4715 44.525C87.6228 44.525 86.6201 44.0863 86.4635 43.209ZM101.885 43.209C101.885 42.9583 102.058 42.8017 102.402 42.739C104.596 42.739 106.93 42.034 109.405 40.624C111.912 39.214 113.165 37.7413 113.165 36.206C113.165 35.078 112.413 33.997 110.909 32.963C109.405 31.8977 108.653 30.7853 108.653 29.626C108.653 27.9027 109.75 26.4143 111.943 25.161C114.137 23.8763 116.628 23.234 119.416 23.234C119.918 23.234 120.247 23.2497 120.403 23.281C120.56 23.281 120.701 23.187 120.826 22.999C120.983 22.7797 121.155 22.5447 121.343 22.294C121.531 22.0433 121.876 21.824 122.377 21.636C122.879 21.4167 123.474 21.307 124.163 21.307C125.761 21.307 126.56 21.542 126.56 22.012C126.56 22.106 126.545 22.1843 126.513 22.247C126.012 22.6857 125.119 23.7667 123.834 25.49C122.55 27.2133 121.61 28.827 121.014 30.331C120.889 30.613 120.607 30.754 120.168 30.754C119.761 30.754 119.354 30.519 118.946 30.049C118.539 29.5477 118.335 29.0777 118.335 28.639C118.335 28.169 118.414 27.6833 118.57 27.182C118.727 26.6493 118.805 26.336 118.805 26.242C118.805 25.8347 118.555 25.631 118.053 25.631C117.082 25.631 116.064 25.9287 114.998 26.524C113.964 27.088 113.447 27.9183 113.447 29.015C113.447 30.0803 114.231 31.1613 115.797 32.258C116.393 32.6967 116.925 33.2607 117.395 33.95C117.897 34.6393 118.147 35.36 118.147 36.112C118.147 38.2427 116.753 40.1697 113.964 41.893C111.176 43.6477 108.152 44.525 104.893 44.525C103.045 44.525 102.042 44.0863 101.885 43.209Z" fill="#141D0C"/>
<path d="M101.419 58V48.5469H104.019C104.699 48.5469 105.211 48.7367 105.555 49.1162C105.898 49.4922 106.07 50.0436 106.07 50.7705V55.1963C106.07 56.0915 105.913 56.7826 105.598 57.2695C105.286 57.7565 104.738 58 103.954 58H101.419ZM103.32 56.3296H103.648C103.995 56.3296 104.169 56.1613 104.169 55.8247V50.9478C104.169 50.6326 104.126 50.4303 104.04 50.3408C103.958 50.2477 103.788 50.2012 103.53 50.2012H103.32V56.3296ZM106.801 49.4492V47.8486H108.724V49.4492H106.801ZM106.801 58V49.9434H108.724V58H106.801ZM111.694 58.0859C110.104 58.0859 109.309 57.2803 109.309 55.6689V55.0298H111.243V55.9751C111.243 56.1577 111.278 56.3009 111.35 56.4048C111.422 56.5086 111.536 56.5605 111.694 56.5605C111.973 56.5605 112.113 56.3511 112.113 55.9321C112.113 55.5812 112.039 55.3198 111.893 55.1479C111.746 54.9725 111.567 54.8042 111.355 54.6431L110.33 53.8535C110.007 53.6029 109.762 53.3379 109.594 53.0586C109.425 52.7793 109.341 52.3908 109.341 51.8931C109.341 51.4312 109.451 51.0498 109.669 50.749C109.891 50.4482 110.183 50.2244 110.544 50.0776C110.91 49.9308 111.304 49.8574 111.726 49.8574C113.287 49.8574 114.068 50.6362 114.068 52.1938V52.3442H112.081V52.0381C112.081 51.877 112.052 51.7212 111.995 51.5708C111.941 51.4204 111.833 51.3452 111.672 51.3452C111.4 51.3452 111.264 51.4884 111.264 51.7749C111.264 52.0649 111.379 52.2923 111.608 52.457L112.8 53.3271C113.173 53.5957 113.484 53.9144 113.735 54.2832C113.989 54.652 114.116 55.1426 114.116 55.7549C114.116 56.514 113.9 57.0923 113.466 57.4897C113.037 57.8872 112.446 58.0859 111.694 58.0859ZM114.707 59.3428V49.9434H116.662V50.8027C116.78 50.5055 116.943 50.2746 117.151 50.1099C117.362 49.9416 117.663 49.8574 118.053 49.8574C118.58 49.8574 118.95 50.049 119.165 50.4321C119.383 50.8153 119.493 51.3166 119.493 51.936V55.8999C119.493 56.3117 119.434 56.6841 119.315 57.0171C119.201 57.3465 119.018 57.6079 118.768 57.8013C118.521 57.991 118.196 58.0859 117.795 58.0859C117.273 58.0859 116.895 57.7708 116.662 57.1406V59.3428H114.707ZM117.119 56.5874C117.319 56.5874 117.439 56.4871 117.479 56.2866C117.521 56.0861 117.543 55.839 117.543 55.5454V52.3979C117.543 52.1007 117.521 51.8537 117.479 51.6567C117.439 51.4562 117.319 51.356 117.119 51.356C116.911 51.356 116.782 51.458 116.732 51.6621C116.685 51.8626 116.662 52.1079 116.662 52.3979V55.5454C116.662 55.8354 116.685 56.0825 116.732 56.2866C116.782 56.4871 116.911 56.5874 117.119 56.5874ZM122.484 58.0859C121.911 58.0859 121.455 57.9785 121.115 57.7637C120.775 57.5488 120.531 57.2391 120.384 56.8345C120.237 56.4299 120.164 55.9429 120.164 55.3735V52.1348C120.164 51.3864 120.379 50.8206 120.809 50.4375C121.238 50.0508 121.829 49.8574 122.581 49.8574C124.128 49.8574 124.901 50.6165 124.901 52.1348V52.7202C124.901 53.4292 124.894 53.9054 124.88 54.1489H122.087V55.7065C122.087 55.8498 122.096 55.9912 122.114 56.1309C122.132 56.2669 122.171 56.3797 122.232 56.4692C122.296 56.5588 122.398 56.6035 122.538 56.6035C122.739 56.6035 122.864 56.5176 122.914 56.3457C122.964 56.1702 122.989 55.9429 122.989 55.6636V54.8901H124.901V55.3467C124.901 55.9482 124.826 56.4531 124.676 56.8613C124.529 57.266 124.278 57.5721 123.924 57.7798C123.573 57.9839 123.093 58.0859 122.484 58.0859ZM122.076 53.1929H122.989V52.1079C122.989 51.8179 122.953 51.6102 122.882 51.4849C122.81 51.356 122.703 51.2915 122.56 51.2915C122.406 51.2915 122.286 51.3524 122.2 51.4741C122.117 51.5959 122.076 51.8071 122.076 52.1079V53.1929ZM125.6 58V49.9434H127.522V50.9692C127.594 50.6613 127.727 50.3999 127.92 50.1851C128.117 49.9666 128.389 49.8574 128.736 49.8574C129.295 49.8574 129.7 50.0293 129.95 50.373C130.204 50.7168 130.332 51.1877 130.332 51.7856V58H128.436V51.9844C128.436 51.8268 128.403 51.6818 128.339 51.5493C128.274 51.4132 128.163 51.3452 128.006 51.3452C127.859 51.3452 127.75 51.3971 127.678 51.501C127.61 51.6012 127.567 51.7284 127.549 51.8823C127.531 52.0327 127.522 52.1831 127.522 52.3335V58H125.6ZM133.296 58.0859C131.707 58.0859 130.912 57.2803 130.912 55.6689V55.0298H132.845V55.9751C132.845 56.1577 132.881 56.3009 132.953 56.4048C133.024 56.5086 133.139 56.5605 133.296 56.5605C133.576 56.5605 133.715 56.3511 133.715 55.9321C133.715 55.5812 133.642 55.3198 133.495 55.1479C133.348 54.9725 133.169 54.8042 132.958 54.6431L131.932 53.8535C131.61 53.6029 131.365 53.3379 131.196 53.0586C131.028 52.7793 130.944 52.3908 130.944 51.8931C130.944 51.4312 131.053 51.0498 131.271 50.749C131.493 50.4482 131.785 50.2244 132.147 50.0776C132.512 49.9308 132.906 49.8574 133.329 49.8574C134.89 49.8574 135.67 50.6362 135.67 52.1938V52.3442H133.683V52.0381C133.683 51.877 133.654 51.7212 133.597 51.5708C133.543 51.4204 133.436 51.3452 133.275 51.3452C133.003 51.3452 132.867 51.4884 132.867 51.7749C132.867 52.0649 132.981 52.2923 133.21 52.457L134.403 53.3271C134.775 53.5957 135.087 53.9144 135.337 54.2832C135.592 54.652 135.719 55.1426 135.719 55.7549C135.719 56.514 135.502 57.0923 135.069 57.4897C134.639 57.8872 134.048 58.0859 133.296 58.0859ZM137.776 58.0859C137.328 58.0859 136.986 57.9821 136.75 57.7744C136.517 57.5667 136.358 57.2821 136.272 56.9204C136.186 56.5588 136.143 56.1488 136.143 55.6904C136.143 55.1999 136.191 54.7988 136.288 54.4873C136.385 54.1722 136.549 53.9144 136.782 53.7139C137.019 53.5133 137.343 53.3433 137.754 53.2036L138.947 52.7954V51.9683C138.947 51.535 138.805 51.3184 138.522 51.3184C138.265 51.3184 138.136 51.4938 138.136 51.8447V52.3281H136.267C136.263 52.2995 136.261 52.2637 136.261 52.2207C136.261 52.1742 136.261 52.1222 136.261 52.0649C136.261 51.2629 136.449 50.6953 136.825 50.3623C137.205 50.0257 137.805 49.8574 138.625 49.8574C139.054 49.8574 139.439 49.9344 139.779 50.0884C140.119 50.2388 140.388 50.4626 140.585 50.7598C140.785 51.057 140.886 51.424 140.886 51.8608V58H138.974V57.0439C138.881 57.3805 138.727 57.6383 138.512 57.8174C138.297 57.9964 138.052 58.0859 137.776 58.0859ZM138.533 56.5928C138.691 56.5928 138.798 56.5265 138.855 56.394C138.913 56.2616 138.941 56.1183 138.941 55.9644V53.7192C138.676 53.8267 138.471 53.9627 138.324 54.1274C138.177 54.2886 138.104 54.5267 138.104 54.8418V55.8784C138.104 56.3547 138.247 56.5928 138.533 56.5928ZM141.627 58V49.9434H143.582V50.8403C143.675 50.5288 143.84 50.2853 144.076 50.1099C144.312 49.9344 144.61 49.8467 144.968 49.8467V51.4526C144.81 51.4526 144.622 51.4705 144.404 51.5063C144.185 51.5386 143.994 51.5851 143.829 51.646C143.664 51.7033 143.582 51.7677 143.582 51.8394V58H141.627ZM145.285 59.3428V58.1235H146.208C146.348 58.1235 146.418 58.0752 146.418 57.9785C146.418 57.9284 146.413 57.8765 146.402 57.8228L145.14 49.9434H146.982L147.519 55.873L148.153 49.9434H150.006L148.513 58.4189C148.459 58.7233 148.355 58.9525 148.201 59.1064C148.051 59.264 147.802 59.3428 147.455 59.3428H145.285Z" fill="#141D0C"/>
</svg>
